<?xml version="1.0" encoding="utf-8"?>
<!-- Generator: Adobe Illustrator 19.1.0, SVG Export Plug-In . SVG Version: 6.00 Build 0)  -->
<svg version="1.0" id="Layer_1" xmlns="http://www.w3.org/2000/svg" xmlns:xlink="http://www.w3.org/1999/xlink" x="0px" y="0px"
	 viewBox="0 0 400 150" style="enable-background:new 0 0 400 150;" xml:space="preserve">
<path d="M14.7,107.4l-4.8-4.9c-0.7-0.7-0.7-1.9,0.1-2.6l48.7-46.8c5.8-5.6,14.4-7.1,22.2-3.5c3.7,1.7,6.5,4.8,8.6,8.3
	c1.3,2.2,3.4,3.7,5.9,4.2c2.6,0.6,5.2,0,7.3-1.6l14.4-10.7c0.8-0.6,2-0.4,2.6,0.4l4.1,5.5c0.6,0.8,0.4,2-0.4,2.6L109,69
	c-4.5,3.4-10.3,4.6-15.8,3.4c-5.4-1.2-10.1-4.6-12.8-9.3c-1.4-2.4-3.6-4.2-6.2-4.8c-2.9-0.6-5.9,0.3-8.1,2.3l-48.7,46.8
	C16.6,108.2,15.4,108.2,14.7,107.4z M227.9,40.9l-38.5,29.4c-1.1,0.8-2.6-0.1-2.4-1.4l1.5-9.2c0.2-1-0.5-2-1.5-2.1l-6.8-1.1
	c-1-0.2-2,0.5-2.1,1.5l-3.5,21.5c-0.3,1.6-1.1,3-2.4,4l-14.3,10.9c-2.6,1.9-5.9,2.4-8.9,1.2c-3-1.2-5.1-4-5.6-7.2L140.2,69
	c-0.2-1-1.1-1.7-2.1-1.5l-6.8,1.1c-1,0.2-1.7,1.1-1.5,2.1l3.2,19.1c1.2,7.1,5.9,13.2,12.6,15.7c2.2,0.8,4.6,1.2,6.8,1.2
	c4.2,0,8.4-1.4,11.8-4l70-53.4c0.8-0.6,1-1.8,0.4-2.6l-4.2-5.5C229.9,40.5,228.8,40.3,227.9,40.9z M224.7,135.3l50.5-116.5
	c0.4-0.9,0-2-1-2.4l-6.3-2.7c-0.9-0.4-2,0-2.4,1L215,131.1c-0.4,0.9,0,2,1,2.4l6.3,2.7C223.2,136.7,224.3,136.3,224.7,135.3z
	 M312.9,99.7l72.8-53.8c0.8-0.6,1-1.8,0.4-2.6l-4.1-5.5c-0.6-0.8-1.8-1-2.6-0.4l-72.8,53.8c-2.5,1.8-5.5,2.3-8.4,1.3
	c-3-1.1-5.2-3.7-5.9-6.8l-4.7-20.9c-0.2-1-1.2-1.6-2.2-1.4l-6.7,1.5c-1,0.2-1.6,1.2-1.4,2.2l4.7,20.8c1.3,5.8,5,10.8,10.2,13.5
	c2.9,1.5,6,2.2,9,2.2C305.4,103.5,309.4,102.2,312.9,99.7z M313.7,51.4L347,46c1-0.2,1.7-1.1,1.5-2.1l-1.1-6.8
	c-0.2-1-1.1-1.7-2.1-1.5L312,41c-1,0.2-1.7,1.1-1.5,2.1l1.1,6.8C311.8,50.9,312.7,51.6,313.7,51.4z M355.7,93.4L389,88
	c1-0.2,1.7-1.1,1.5-2.1l-1.1-6.8c-0.2-1-1.1-1.7-2.1-1.5L354,83c-1,0.2-1.7,1.1-1.5,2.1l1.1,6.8C353.8,92.9,354.7,93.6,355.7,93.4z"
	/>
</svg>
