<?xml version="1.0" encoding="utf-8"?>
<!-- Generator: Adobe Illustrator 19.1.0, SVG Export Plug-In . SVG Version: 6.00 Build 0)  -->
<svg version="1.0" id="Layer_1" xmlns="http://www.w3.org/2000/svg" xmlns:xlink="http://www.w3.org/1999/xlink" x="0px" y="0px"
	 viewBox="0 0 1366 531" style="enable-background:new 0 0 1366 531;" xml:space="preserve">
<style type="text/css">
	.st0{fill:url(#SVGID_1_);}
	.st1{clip-path:url(#SVGID_3_);fill:url(#SVGID_4_);}
	.st2{clip-path:url(#SVGID_3_);fill:url(#SVGID_5_);}
	.st3{clip-path:url(#SVGID_3_);fill:url(#SVGID_6_);}
</style>
<linearGradient id="SVGID_1_" gradientUnits="userSpaceOnUse" x1="683" y1="-2.348290e-006" x2="683" y2="531">
	<stop  offset="0" style="stop-color:#093F82"/>
	<stop  offset="0.5917" style="stop-color:#132771"/>
	<stop  offset="1" style="stop-color:#1B1464"/>
</linearGradient>
<rect x="0" y="0" class="st0" width="1366" height="531"/>
<g>
	<defs>
		<rect id="SVGID_2_" x="0" y="0" width="1366" height="531"/>
	</defs>
	<clipPath id="SVGID_3_">
		<use xlink:href="#SVGID_2_"  style="overflow:visible;"/>
	</clipPath>
	
		<linearGradient id="SVGID_4_" gradientUnits="userSpaceOnUse" x1="1412.9502" y1="-165.7738" x2="-41.8396" y2="326.9174" gradientTransform="matrix(-0.7514 0.6599 -0.6599 -0.7514 991.2777 -26.5341)">
		<stop  offset="0" style="stop-color:#093F82"/>
		<stop  offset="0.5917" style="stop-color:#132771"/>
		<stop  offset="1" style="stop-color:#1B1464"/>
	</linearGradient>
	<path class="st1" d="M657.3,698.7c-80.4-255-17.2-420.1,108.1-560.7c161.6-181.4,151.5-321.2,75.7-404.3
		c-172.9-189.4-377,58.5-547.8,259.9c-43.4,51.2-174.7,184-233.2,213.1c-68.2,34-145.9,69.4-209.3,115.6
		C-273.2,412.8-371.3,536-278.5,676C-208.5,781.4-79,788.3,95.7,884.1c173.7,95.2,125.4,224,245.2,317.7
		C547.9,1363.6,775,1072,657.3,698.7z"/>
	<linearGradient id="SVGID_5_" gradientUnits="userSpaceOnUse" x1="702.5155" y1="23.6807" x2="1200.3832" y2="311.1248">
		<stop  offset="0" style="stop-color:#093F82"/>
		<stop  offset="0.5917" style="stop-color:#132771"/>
		<stop  offset="1" style="stop-color:#1B1464"/>
	</linearGradient>
	<path class="st2" d="M1521.7-56.9c-68.5,145-238.4,158.7-319.4,236.8c-77.5,74.7-59.5,172.8-58.7,283
		c0.9,112.2-49.5,279-167.1,335.7c-142,68.4-356.4,11.2-411.1-205.1c-51-202,31.5-417,191.6-602.4
		c170.3-197.1,391.7-278.5,542.5-308.5C1495.6-356.3,1591.8-205.4,1521.7-56.9z"/>
	
		<linearGradient id="SVGID_6_" gradientUnits="userSpaceOnUse" x1="-337.7281" y1="856.1017" x2="-562.3488" y2="314.849" gradientTransform="matrix(-0.9915 0.1299 -0.1299 -0.9915 -379.4568 594.2947)">
		<stop  offset="0" style="stop-color:#093F82"/>
		<stop  offset="0.5917" style="stop-color:#132771"/>
		<stop  offset="1" style="stop-color:#1B1464"/>
	</linearGradient>
	<path class="st3" d="M-272.7,269.1c35.5-110.5,156.1-136.2,206.9-199.9C-17.2,8.4-39.3-60.2-50.3-139.2
		C-61.5-219.6-41-344,38-395.7c95.4-62.4,254.6-41.5,314.1,108.5c55.6,140.1,16.6,302.1-80.8,450.1
		C167.7,320.3,16.6,399.5-88.8,435.1C-225.8,481.5-309,382.3-272.7,269.1z"/>
</g>
</svg>
